<?xml version="1.0" encoding="UTF-8"?><svg viewBox="0 0 2000 2000" version="1.1" xmlns="http://www.w3.org/2000/svg" xmlns:xlink="http://www.w3.org/1999/xlink" preserveAspectRatio="xMidYMid meet"><path fill="#041E44" d="M94.479 8.589v860.122c0 780.368 904.294 1130.061 904.294 1130.061s904.294-349.693 904.294-1130.06V8.588H94.479z"/><path fill="#FFC72C" d="M1828.22 868.711c0 460.123-373.006 847.853-829.447 1049.08-456.442-200-829.447-588.957-829.447-1049.08V83.436H1828.22V868.71z"/><path fill="#041E44" d="M1000 1842.944s759.509-325.153 759.509-974.233V152.147H240.49v716.564c0 649.08 759.509 974.233 759.509 974.233zm348.466-507.975s-51.534-26.994-122.7-26.994H592.639l-28.22-76.074c49.08-3.68 107.975-42.945 109.202-87.116V954.6h228.22v244.171h258.896c110.43-3.68 166.871-80.981 193.865-136.196h85.89l-92.025 272.393zM604.908 817.178h68.712v-19.632h530.06l-7.361 22.086c-13.497 4.907-26.994 12.27-40.49 19.631-40.492 23.313-72.393 51.534-92.025 80.982H559.509l45.4-103.067zm-12.27-409.816h644.172c30.675 0 65.03-1.227 94.478-22.086l90.798 271.165h-85.89c-38.037-77.3-77.3-141.104-170.552-141.104H901.841V763.19H673.62V571.779c-1.227-57.669-82.209-79.755-110.43-85.89l29.448-78.527z"/></svg>